<svg width="186" height="64" viewBox="0 0 186 64" fill="none" xmlns="http://www.w3.org/2000/svg">
<path fill-rule="evenodd" clip-rule="evenodd" d="M50.0126 9.2816V7.20316L44.267 9.33873H44.2561V11.4716H44.267L50.0126 13.6072V11.526L47.0663 10.3997L50.0126 9.27888V9.2816Z" fill="#F7DD43"/>
<path fill-rule="evenodd" clip-rule="evenodd" d="M83.2922 13.5037V11.4253L86.2358 10.3072L83.2922 9.18905V7.1106L89.0297 9.24618H89.0433V11.3817H89.0297L83.2922 13.5064V13.5037ZM80.8275 4.16977L77.4541 15H79.4563L82.8297 4.16977H80.8275Z" fill="#F7DD43"/>
<path fill-rule="evenodd" clip-rule="evenodd" d="M58.4543 6.91747C59.0256 7.54317 59.3249 8.3702 59.2895 9.21627V13.8302H57.2873V9.64066C57.3117 9.17274 57.1621 8.7157 56.8683 8.35116C56.5908 8.02742 56.18 7.84787 55.7529 7.86691C54.4988 7.86691 53.8703 8.73746 53.8703 10.4758V13.8302H51.8681V6.25639H53.8703V6.93923C54.5069 6.32168 55.3693 5.99251 56.2562 6.03059C57.0832 5.99523 57.883 6.31896 58.4543 6.91747V6.91747Z" fill="#F7DD43"/>
<path fill-rule="evenodd" clip-rule="evenodd" d="M61.8413 3V13.8302H63.8436V3H61.8413Z" fill="#F7DD43"/>
<path fill-rule="evenodd" clip-rule="evenodd" d="M75.1661 13.8302H73.4957L71.858 9.36862L70.2039 13.8302H68.5336L65.726 6.2428H67.8671L69.4449 10.7806L71.0718 6.2428H72.6361L74.2629 10.7942L75.8408 6.2428H77.9818L75.1715 13.8302H75.1661Z" fill="#F7DD43"/>
<path d="M98.5795 17.9981C96.6532 17.9981 94.6294 17.6331 93.0433 16.754V1.24411C94.6046 0.389878 96.6284 2.85548e-05 98.5795 2.85548e-05C100.531 2.85548e-05 102.507 0.365035 104.066 1.24411V7.19505H100.139V3.14558C99.6765 2.95066 99.1146 2.87804 98.5547 2.87804C97.9947 2.87804 97.4807 2.95066 96.9934 3.14558V14.8525C97.4558 15.0475 97.9928 15.1201 98.5547 15.1201C99.1165 15.1201 99.6516 15.0475 100.139 14.8525V10.805H104.066V16.7559C102.53 17.6102 100.506 17.9752 98.5795 18V17.9981Z" fill="#F7DD43"/>
<path d="M111.431 17.9981C109.358 17.9981 107.359 17.5585 105.773 16.6565V1.3167C107.334 0.439536 109.335 0 111.431 0C113.528 0 115.479 0.414693 117.04 1.3167V16.6565C115.504 17.5585 113.48 17.9732 111.431 17.9981ZM113.115 3.19524C112.652 3.00031 112.091 2.90285 111.408 2.90285C110.726 2.90285 110.189 3.00031 109.725 3.19524V14.7799C110.187 14.9997 110.749 15.0971 111.408 15.0971C112.068 15.0971 112.628 14.9997 113.115 14.7799V3.19524Z" fill="#F7DD43"/>
<path d="M123.893 11.4127H122.844V17.7783H118.869V0.219779H123.893C126.284 0.219779 128.088 0.707092 129.502 1.70656V9.92589C128.113 10.9024 126.282 11.4127 123.893 11.4127ZM125.552 3.24303C125.187 2.97548 124.698 2.85318 123.868 2.85318H122.794V8.77927H123.868C124.673 8.77927 125.16 8.65697 125.552 8.41427V3.24303Z" fill="#F7DD43"/>
<path d="M137.817 17.7783V11.4127H134.891V17.7783H130.941V1.29185C132.38 0.437625 134.404 0 136.355 0C138.306 0 140.305 0.439537 141.744 1.29185V17.7783H137.817ZM137.817 3.04809C137.402 2.85316 136.89 2.7557 136.353 2.7557C135.816 2.7557 135.304 2.85316 134.889 3.04809V8.63211H137.815V3.04809H137.817Z" fill="#F7DD43"/>
<path d="M16.2129 47.9248H20.5928C20.5049 49.3604 20.1094 50.6348 19.4062 51.748C18.7129 52.8613 17.7412 53.7305 16.4912 54.3555C15.251 54.9805 13.7568 55.293 12.0088 55.293C10.6416 55.293 9.41602 55.0586 8.33203 54.5898C7.24805 54.1113 6.32031 53.4277 5.54883 52.5391C4.78711 51.6504 4.20605 50.5762 3.80566 49.3164C3.40527 48.0566 3.20508 46.6455 3.20508 45.083V43.6035C3.20508 42.041 3.41016 40.6299 3.82031 39.3701C4.24023 38.1006 4.83594 37.0215 5.60742 36.1328C6.38867 35.2441 7.32129 34.5605 8.40527 34.082C9.48926 33.6035 10.7002 33.3643 12.0381 33.3643C13.8154 33.3643 15.3145 33.6865 16.5352 34.3311C17.7656 34.9756 18.7178 35.8643 19.3916 36.9971C20.0752 38.1299 20.4854 39.4189 20.6221 40.8643H16.2275C16.1787 40.0049 16.0078 39.2773 15.7148 38.6816C15.4219 38.0762 14.9775 37.6221 14.3818 37.3193C13.7959 37.0068 13.0146 36.8506 12.0381 36.8506C11.3057 36.8506 10.666 36.9873 10.1191 37.2607C9.57227 37.5342 9.11328 37.9492 8.74219 38.5059C8.37109 39.0625 8.09277 39.7656 7.90723 40.6152C7.73145 41.4551 7.64355 42.4414 7.64355 43.5742V45.083C7.64355 46.1865 7.72656 47.1582 7.89258 47.998C8.05859 48.8281 8.3125 49.5312 8.6543 50.1074C9.00586 50.6738 9.45508 51.1035 10.002 51.3965C10.5586 51.6797 11.2275 51.8213 12.0088 51.8213C12.9268 51.8213 13.6836 51.6748 14.2793 51.3818C14.875 51.0889 15.3291 50.6543 15.6416 50.0781C15.9639 49.502 16.1543 48.7842 16.2129 47.9248ZM32.1504 37.3193L26.3496 55H21.6768L29.6016 33.6719H32.5752L32.1504 37.3193ZM36.9697 55L31.1543 37.3193L30.6855 33.6719H33.6885L41.6572 55H36.9697ZM36.7061 47.0605V50.5029H25.4414V47.0605H36.7061ZM57.3457 51.5723V55H46.6084V51.5723H57.3457ZM48.0293 33.6719V55H43.6348V33.6719H48.0293ZM74.1768 51.5723V55H62.8242V51.5723H74.1768ZM64.2598 33.6719V55H59.8652V33.6719H64.2598ZM72.6973 42.3584V45.6982H62.8242V42.3584H72.6973ZM74.1621 33.6719V37.1143H62.8242V33.6719H74.1621ZM94.0986 33.6719V55H89.7041L81.1348 40.7031V55H76.7402V33.6719H81.1348L89.7188 47.9834V33.6719H94.0986ZM104.47 55H99.8262L99.8555 51.5723H104.47C105.622 51.5723 106.594 51.3135 107.385 50.7959C108.176 50.2686 108.771 49.502 109.172 48.4961C109.582 47.4902 109.787 46.2744 109.787 44.8486V43.8086C109.787 42.7148 109.67 41.7529 109.436 40.9229C109.211 40.0928 108.874 39.3945 108.425 38.8281C107.976 38.2617 107.424 37.8369 106.77 37.5537C106.115 37.2607 105.363 37.1143 104.514 37.1143H99.7383V33.6719H104.514C105.939 33.6719 107.243 33.916 108.425 34.4043C109.616 34.8828 110.646 35.5713 111.516 36.4697C112.385 37.3682 113.054 38.4424 113.522 39.6924C114.001 40.9326 114.24 42.3145 114.24 43.8379V44.8486C114.24 46.3623 114.001 47.7441 113.522 48.9941C113.054 50.2441 112.385 51.3184 111.516 52.2168C110.656 53.1055 109.626 53.7939 108.425 54.2822C107.233 54.7607 105.915 55 104.47 55ZM102.316 33.6719V55H97.9219V33.6719H102.316ZM125.783 37.3193L119.982 55H115.31L123.234 33.6719H126.208L125.783 37.3193ZM130.603 55L124.787 37.3193L124.318 33.6719H127.321L135.29 55H130.603ZM130.339 47.0605V50.5029H119.074V47.0605H130.339ZM123.308 32.4707L126.179 27.959H130.764L126.735 32.4707H123.308ZM137.268 33.6719H145.222C146.853 33.6719 148.254 33.916 149.426 34.4043C150.607 34.8926 151.516 35.6152 152.15 36.5723C152.785 37.5293 153.103 38.7061 153.103 40.1025C153.103 41.2451 152.907 42.2266 152.517 43.0469C152.136 43.8574 151.594 44.5361 150.891 45.083C150.197 45.6201 149.382 46.0498 148.444 46.3721L147.053 47.1045H140.139L140.109 43.6768H145.251C146.022 43.6768 146.662 43.54 147.17 43.2666C147.678 42.9932 148.059 42.6123 148.312 42.124C148.576 41.6357 148.708 41.0693 148.708 40.4248C148.708 39.7412 148.581 39.1504 148.327 38.6523C148.073 38.1543 147.688 37.7734 147.17 37.5098C146.652 37.2461 146.003 37.1143 145.222 37.1143H141.662V55H137.268V33.6719ZM149.191 55L144.328 45.4932L148.972 45.4639L153.894 54.7949V55H149.191ZM161.159 33.6719V55H156.779V33.6719H161.159ZM182.795 43.8379V44.8486C182.795 46.4697 182.575 47.9248 182.136 49.2139C181.696 50.5029 181.076 51.6016 180.275 52.5098C179.475 53.4082 178.518 54.0967 177.404 54.5752C176.301 55.0537 175.075 55.293 173.728 55.293C172.39 55.293 171.164 55.0537 170.051 54.5752C168.947 54.0967 167.99 53.4082 167.18 52.5098C166.369 51.6016 165.739 50.5029 165.29 49.2139C164.851 47.9248 164.631 46.4697 164.631 44.8486V43.8379C164.631 42.207 164.851 40.752 165.29 39.4727C165.729 38.1836 166.35 37.085 167.15 36.1768C167.961 35.2686 168.918 34.5752 170.021 34.0967C171.135 33.6182 172.36 33.3789 173.698 33.3789C175.046 33.3789 176.271 33.6182 177.375 34.0967C178.488 34.5752 179.445 35.2686 180.246 36.1768C181.057 37.085 181.682 38.1836 182.121 39.4727C182.57 40.752 182.795 42.207 182.795 43.8379ZM178.356 44.8486V43.8086C178.356 42.6758 178.254 41.6797 178.049 40.8203C177.844 39.9609 177.541 39.2383 177.141 38.6523C176.74 38.0664 176.252 37.627 175.676 37.334C175.1 37.0312 174.44 36.8799 173.698 36.8799C172.956 36.8799 172.297 37.0312 171.721 37.334C171.154 37.627 170.671 38.0664 170.271 38.6523C169.88 39.2383 169.582 39.9609 169.377 40.8203C169.172 41.6797 169.069 42.6758 169.069 43.8086V44.8486C169.069 45.9717 169.172 46.9678 169.377 47.8369C169.582 48.6963 169.885 49.4238 170.285 50.0195C170.686 50.6055 171.174 51.0498 171.75 51.3525C172.326 51.6553 172.985 51.8066 173.728 51.8066C174.47 51.8066 175.129 51.6553 175.705 51.3525C176.281 51.0498 176.765 50.6055 177.155 50.0195C177.546 49.4238 177.844 48.6963 178.049 47.8369C178.254 46.9678 178.356 45.9717 178.356 44.8486Z" fill="url(#paint0_linear_209_949)"/>
<defs>
<linearGradient id="paint0_linear_209_949" x1="93" y1="26" x2="93" y2="64" gradientUnits="userSpaceOnUse">
<stop stop-color="white"/>
<stop offset="1" stop-color="#D9D9D9" stop-opacity="0.8"/>
</linearGradient>
</defs>
</svg>
